<svg id="cash-on-delivery_1_" data-name="cash-on-delivery (1)" xmlns="http://www.w3.org/2000/svg" width="24" height="21.372" viewBox="0 0 24 21.372">
  <path id="Path_45" data-name="Path 45" d="M23.923,39.168,22.78,38.024a.381.381,0,0,0-.539.539l.493.493H13.739V34.862a.381.381,0,0,0-.763,0v4.575a.381.381,0,0,0,.381.381h9.376l-.493.493a.381.381,0,1,0,.539.539l1.143-1.143a.382.382,0,0,0,.083-.416A.388.388,0,0,0,23.923,39.168Z" transform="translate(-8.177 -22.948)" fill="orange"/>
  <path id="Path_46" data-name="Path 46" d="M40.37,11.963a.381.381,0,0,0,.381-.381V7.006a.381.381,0,0,0-.381-.381H33.281l.493-.493a.381.381,0,0,0-.539-.539L32.091,6.736a.373.373,0,0,0-.083.125.382.382,0,0,0,.083.416L33.235,8.42a.381.381,0,0,0,.539-.539l-.493-.493h6.708v4.194a.381.381,0,0,0,.381.381Z" transform="translate(-20.189 -4.726)" fill="orange"/>
  <path id="Path_47" data-name="Path 47" d="M50.909,34.5a1.906,1.906,0,1,0,1.906,1.906A1.908,1.908,0,0,0,50.909,34.5Zm0,3.049a1.143,1.143,0,1,1,1.144-1.144A1.145,1.145,0,0,1,50.909,37.552Z" transform="translate(-30.722 -22.92)" fill="orange"/>
  <path id="Path_48" data-name="Path 48" d="M51.625,24.878a.381.381,0,0,0-.381-.381l-6.861,0a.381.381,0,0,0-.381.381v1.136s0,0,0,.006,0,0,0,.006v8.377s0,0,0,.006,0,0,0,.006v1.118c0,.008,0,.013,0,.021v2.288a.381.381,0,0,0,.381.381h6.863a.381.381,0,0,0,.381-.381V35.564s0-.006,0-.009V24.878Zm-6.861.384h.272a.759.759,0,0,1-.272.272Zm0,9.637a.765.765,0,0,1,.274.275h-.274Zm6.1,2.562h-6.1v-.381h6.1Zm0-1.144h-6.1v-.381h6.1Zm0-1.144h-.274a.761.761,0,0,1,.274-.274Zm0-1.089a1.523,1.523,0,0,0-1.088,1.089H45.852a1.522,1.522,0,0,0-1.088-1.089V26.349a1.521,1.521,0,0,0,1.087-1.087l3.923,0a1.521,1.521,0,0,0,1.088,1.089Zm0-8.549a.759.759,0,0,1-.274-.275h.274Z" transform="translate(-27.625 -16.852)" fill="orange"/>
  <path id="Path_49" data-name="Path 49" d="M11.438,14.179V5.408c0-.015-.007-.028-.008-.043a.393.393,0,0,0-.015-.076.371.371,0,0,0-.034-.071.4.4,0,0,0-.019-.039L10.218,3.654c-.005-.007-.013-.01-.019-.017a.379.379,0,0,0-.06-.053.372.372,0,0,0-.057-.039.4.4,0,0,0-.067-.024.374.374,0,0,0-.077-.015c-.009,0-.016-.005-.026-.005H1.523c-.009,0-.017,0-.026.005a.357.357,0,0,0-.077.016.388.388,0,0,0-.065.023.381.381,0,0,0-.059.04.373.373,0,0,0-.058.051c-.006.007-.014.01-.02.018L.073,5.179a.379.379,0,0,0-.019.04.367.367,0,0,0-.033.07.363.363,0,0,0-.015.075A.344.344,0,0,0,0,5.408v8.771a.381.381,0,0,0,.381.381H11.056a.381.381,0,0,0,.381-.381ZM9.722,4.264l.572.763H7.159l-.19-.763Zm-4.47,0h.93l.19.763H5.062Zm-.3,1.525H6.48v.764H4.956ZM1.714,4.264H4.467l-.19.763H1.141ZM10.675,13.8H.76V5.789H4.193V6.934a.381.381,0,0,0,.381.381H6.861a.381.381,0,0,0,.381-.381V5.789h3.433Z" transform="translate(0.003 -3.501)" fill="orange"/>
  <path id="Path_50" data-name="Path 50" d="M7.432,23.5H4.381a.381.381,0,1,0,0,.763H7.432a.381.381,0,1,0,0-.763Z" transform="translate(-2.474 -16.009)" fill="orange"/>
  <path id="Path_51" data-name="Path 51" d="M5.907,26.5H4.381a.381.381,0,1,0,0,.763H5.907a.381.381,0,1,0,0-.763Z" transform="translate(-2.474 -17.885)" fill="orange"/>
</svg>
