<svg xmlns="http://www.w3.org/2000/svg" width="19.159" height="24" viewBox="0 0 19.159 24">
  <path id="Path_16688" data-name="Path 16688" d="M577.154,534.095l-1.389-15.632a.547.547,0,0,0-.543-.5h-2.975l0-.12a4.669,4.669,0,0,0-9.336,0l0,.12h-2.975a.543.543,0,0,0-.543.5L558,534.13a3.333,3.333,0,0,0,3.516,3.12H573.64a3.335,3.335,0,0,0,3.518-3.107Zm-13.149-16.254a3.573,3.573,0,0,1,7.145,0l0,.124H564Zm9.635,18.314H561.515a2.263,2.263,0,0,1-2.422-1.978l1.34-15.11h2.473v2.153a.548.548,0,1,0,1.1,0v-2.153h7.149v2.153a.548.548,0,1,0,1.1,0v-2.153h2.473l1.344,15.1A2.264,2.264,0,0,1,573.64,536.154Z" transform="translate(-557.999 -513.25)" fill="#8a8a8e"/>
</svg>
