<svg xmlns="http://www.w3.org/2000/svg" width="23.98" height="24" viewBox="0 0 23.98 24">
  <g id="Union_8" data-name="Union 8" fill="none">
    <path d="M17,24a4,4,0,0,1-4-4V17a4,4,0,0,1,4-4h2.982a4,4,0,0,1,4,4v3a4,4,0,0,1-4,4ZM4,24a4,4,0,0,1-4-4V17a4,4,0,0,1,4-4H6.98a4,4,0,0,1,4,4v3a4,4,0,0,1-4,4ZM17,11a4,4,0,0,1-4-4V4a4,4,0,0,1,4-4h2.982a4,4,0,0,1,4,4V7a4,4,0,0,1-4,4ZM4,11A4,4,0,0,1,0,7V4A4,4,0,0,1,4,0H6.98a4,4,0,0,1,4,4V7a4,4,0,0,1-4,4Z" stroke="none"/>
    <path d="M 19.98089981079102 23.00030136108398 C 21.63489151000977 23.00030136108398 22.98050117492676 21.65428161621094 22.98050117492676 19.99979972839355 L 22.98050117492676 17.00010108947754 C 22.98050117492676 15.34562110900879 21.63489151000977 13.99960041046143 19.98089981079102 13.99960041046143 L 16.99920082092285 13.99960041046143 C 15.34521102905273 13.99960041046143 13.99960041046143 15.34562110900879 13.99960041046143 17.00010108947754 L 13.99960041046143 19.99979972839355 C 13.99960041046143 21.65428161621094 15.34521102905273 23.00030136108398 16.99920082092285 23.00030136108398 L 19.98089981079102 23.00030136108398 M 6.980400562286377 23.00030136108398 C 8.634881019592285 23.00030136108398 9.980900764465332 21.65428161621094 9.980900764465332 19.99979972839355 L 9.980900764465332 17.00010108947754 C 9.980900764465332 15.34562110900879 8.634881019592285 13.99960041046143 6.980400562286377 13.99960041046143 L 3.999600648880005 13.99960041046143 C 2.345610618591309 13.99960041046143 1.000000596046448 15.34562110900879 1.000000596046448 17.00010108947754 L 1.000000596046448 19.99979972839355 C 1.000000596046448 21.65428161621094 2.345610618591309 23.00030136108398 3.999600648880005 23.00030136108398 L 6.980400562286377 23.00030136108398 M 19.98089981079102 9.999800682067871 C 21.63489151000977 9.999800682067871 22.98050117492676 8.654191017150879 22.98050117492676 7.000200748443604 L 22.98050117492676 3.999600648880005 C 22.98050117492676 2.345610618591309 21.63489151000977 1.000000715255737 19.98089981079102 1.000000715255737 L 16.99920082092285 1.000000715255737 C 15.34521102905273 1.000000715255737 13.99960041046143 2.345610618591309 13.99960041046143 3.999600648880005 L 13.99960041046143 7.000200748443604 C 13.99960041046143 8.654191017150879 15.34521102905273 9.999800682067871 16.99920082092285 9.999800682067871 L 19.98089981079102 9.999800682067871 M 6.980400562286377 9.999800682067871 C 8.634881019592285 9.999800682067871 9.980900764465332 8.654191017150879 9.980900764465332 7.000200748443604 L 9.980900764465332 3.999600648880005 C 9.980900764465332 2.345610618591309 8.634881019592285 1.000000715255737 6.980400562286377 1.000000715255737 L 3.999600648880005 1.000000715255737 C 2.345610618591309 1.000000715255737 1.000000596046448 2.345610618591309 1.000000596046448 3.999600648880005 L 1.000000596046448 7.000200748443604 C 1.000000596046448 8.654191017150879 2.345610618591309 9.999800682067871 3.999600648880005 9.999800682067871 L 6.980400562286377 9.999800682067871 M 19.98089981079102 24.00030136108398 L 16.99920082092285 24.00030136108398 C 14.79060077667236 24.00030136108398 12.99960041046143 22.20930099487305 12.99960041046143 19.99979972839355 L 12.99960041046143 17.00010108947754 C 12.99960041046143 14.79060077667236 14.79060077667236 12.99960041046143 16.99920082092285 12.99960041046143 L 19.98089981079102 12.99960041046143 C 22.18950080871582 12.99960041046143 23.98050117492676 14.79060077667236 23.98050117492676 17.00010108947754 L 23.98050117492676 19.99979972839355 C 23.98050117492676 22.20930099487305 22.18950080871582 24.00030136108398 19.98089981079102 24.00030136108398 Z M 6.980400562286377 24.00030136108398 L 3.999600648880005 24.00030136108398 C 1.790100574493408 24.00030136108398 5.874633757230185e-07 22.20930099487305 5.874633757230185e-07 19.99979972839355 L 5.874633757230185e-07 17.00010108947754 C 5.874633757230185e-07 14.79060077667236 1.790100574493408 12.99960041046143 3.999600648880005 12.99960041046143 L 6.980400562286377 12.99960041046143 C 9.189900398254395 12.99960041046143 10.98090076446533 14.79060077667236 10.98090076446533 17.00010108947754 L 10.98090076446533 19.99979972839355 C 10.98090076446533 22.20930099487305 9.189900398254395 24.00030136108398 6.980400562286377 24.00030136108398 Z M 19.98089981079102 10.99980068206787 L 16.99920082092285 10.99980068206787 C 14.79060077667236 10.99980068206787 12.99960041046143 9.208800315856934 12.99960041046143 7.000200748443604 L 12.99960041046143 3.999600648880005 C 12.99960041046143 1.791000723838806 14.79060077667236 6.805419729971618e-07 16.99920082092285 6.805419729971618e-07 L 19.98089981079102 6.805419729971618e-07 C 22.18950080871582 6.805419729971618e-07 23.98050117492676 1.791000723838806 23.98050117492676 3.999600648880005 L 23.98050117492676 7.000200748443604 C 23.98050117492676 9.208800315856934 22.18950080871582 10.99980068206787 19.98089981079102 10.99980068206787 Z M 6.980400562286377 10.99980068206787 L 3.999600648880005 10.99980068206787 C 1.790100574493408 10.99980068206787 5.874633757230185e-07 9.208800315856934 5.874633757230185e-07 7.000200748443604 L 5.874633757230185e-07 3.999600648880005 C 5.874633757230185e-07 1.791000723838806 1.790100574493408 6.805419729971618e-07 3.999600648880005 6.805419729971618e-07 L 6.980400562286377 6.805419729971618e-07 C 9.189900398254395 6.805419729971618e-07 10.98090076446533 1.791000723838806 10.98090076446533 3.999600648880005 L 10.98090076446533 7.000200748443604 C 10.98090076446533 9.208800315856934 9.189900398254395 10.99980068206787 6.980400562286377 10.99980068206787 Z" stroke="none" fill="#8a8a8e"/>
  </g>
</svg>
