<svg xmlns="http://www.w3.org/2000/svg" xmlns:xlink="http://www.w3.org/1999/xlink" width="24" height="16" viewBox="0 0 24 16">
  <defs>
    <clipPath id="clip-path">
      <rect id="Rectangle_5141" data-name="Rectangle 5141" width="24" height="16" rx="4" fill="#fff"/>
    </clipPath>
  </defs>
  <g id="Mask_Group_247" data-name="Mask Group 247" clip-path="url(#clip-path)">
    <g id="Group_54572" data-name="Group 54572" transform="translate(-0.006)">
      <g id="Group_54571" data-name="Group 54571" transform="translate(0.006)">
        <rect id="Rectangle_5138" data-name="Rectangle 5138" width="24" height="16" fill="#fff"/>
        <g id="Group_54570" data-name="Group 54570" transform="translate(10.167 5.512)">
          <g id="Group_54496" data-name="Group 54496" transform="translate(0 0.833)">
            <path id="Path_17793" data-name="Path 17793" d="M738.394,254.645l1.776,1.682-.1-3.024c-.014-.459-.413-.357-.7-.2a7.551,7.551,0,0,1-1.96-.02c-.287-.168-.684-.278-.708.18l-.158,3.021,1.851-1.646Z" transform="translate(-736.525 -252.927)" fill="#fff"/>
            <path id="Path_17794" data-name="Path 17794" d="M740.084,256.258a.016.016,0,0,1-.011,0l-1.765-1.672-1.841,1.636a.017.017,0,0,1-.018,0,.017.017,0,0,1-.009-.016l.158-3.021c.014-.285.171-.343.3-.342a.981.981,0,0,1,.433.148.93.93,0,0,0,.509.153,1.378,1.378,0,0,0,.457-.081.016.016,0,0,1,.011,0,1.382,1.382,0,0,0,.455.09.927.927,0,0,0,.511-.142.98.98,0,0,1,.436-.139c.129,0,.285.063.293.347l.1,3.024a.016.016,0,0,1-.01.015Zm-3.186-3.384c-.167,0-.256.1-.267.31l-.156,2.982,1.822-1.619a.016.016,0,0,1,.022,0l1.747,1.655-.1-2.984c-.007-.207-.094-.314-.26-.315a.9.9,0,0,0-.419.135.963.963,0,0,1-.529.147,1.287,1.287,0,0,0-.923-.01.963.963,0,0,1-.526-.158A.9.9,0,0,0,736.9,252.874Z" transform="translate(-736.439 -252.841)" fill="#c09300"/>
          </g>
          <g id="w" transform="translate(0.016 1.072)">
            <g id="Group_54497" data-name="Group 54497">
              <path id="Path_17795" data-name="Path 17795" d="M736.906,254.321l-.154,2.939-.212.186.158-3.021a.627.627,0,0,1,.208-.1Z" transform="translate(-736.54 -254.321)" fill="#c09300"/>
            </g>
            <g id="Group_54498" data-name="Group 54498" transform="translate(0.273 0.046)">
              <path id="Path_17796" data-name="Path 17796" d="M738.573,254.773l-.13,2.458-.212.213.156-2.839c.041.042.164.144.186.167Z" transform="translate(-738.23 -254.606)" fill="#c09300"/>
            </g>
            <g id="Group_54499" data-name="Group 54499" transform="translate(0.569 0.277)">
              <path id="Path_17797" data-name="Path 17797" d="M740.333,256.164l-.1,2.05-.171.164.129-2.34c.041.042.123.1.145.126Z" transform="translate(-740.059 -256.038)" fill="#c09300"/>
            </g>
            <g id="Group_54500" data-name="Group 54500" transform="translate(0.823 0.446)">
              <path id="Path_17798" data-name="Path 17798" d="M741.9,257.143l-.1,1.748-.167.132.1-1.945a.607.607,0,0,0,.165.065Z" transform="translate(-741.63 -257.078)" fill="#c09300"/>
            </g>
            <g id="Group_54501" data-name="Group 54501" transform="translate(1.073 0.513)">
              <path id="Path_17799" data-name="Path 17799" d="M743.426,257.5l-.075,1.456-.171.163.08-1.6a.439.439,0,0,0,.166-.017Z" transform="translate(-743.18 -257.497)" fill="#c09300"/>
            </g>
          </g>
          <g id="Group_54507" data-name="Group 54507" transform="translate(2.379 1.102)">
            <g id="w-2" data-name="w">
              <g id="Group_54502" data-name="Group 54502" transform="translate(0.963)">
                <path id="Path_17800" data-name="Path 17800" d="M757.117,254.506l.094,2.942.208.19-.1-3.024a.621.621,0,0,0-.206-.108Z" transform="translate(-757.117 -254.506)" fill="#c09300"/>
              </g>
              <g id="Group_54503" data-name="Group 54503" transform="translate(0.709 0.045)">
                <path id="Path_17801" data-name="Path 17801" d="M755.545,254.946l.08,2.461.208.217-.1-2.841c-.042.041-.167.141-.19.163Z" transform="translate(-755.545 -254.783)" fill="#c09300"/>
              </g>
              <g id="Group_54504" data-name="Group 54504" transform="translate(0.478 0.271)">
                <path id="Path_17802" data-name="Path 17802" d="M754.116,256.306l.062,2.052.167.167-.082-2.342c-.042.041-.125.1-.148.122Z" transform="translate(-754.116 -256.183)" fill="#c09300"/>
              </g>
              <g id="Group_54505" data-name="Group 54505" transform="translate(0.229 0.434)">
                <path id="Path_17803" data-name="Path 17803" d="M752.576,257.254l.065,1.749.164.136-.063-1.947a.6.6,0,0,1-.166.062Z" transform="translate(-752.576 -257.192)" fill="#c09300"/>
              </g>
              <g id="Group_54506" data-name="Group 54506" transform="translate(0 0.494)">
                <path id="Path_17804" data-name="Path 17804" d="M751.159,257.562l.045,1.458.167.167-.048-1.6a.432.432,0,0,1-.165-.021Z" transform="translate(-751.159 -257.562)" fill="#c09300"/>
              </g>
            </g>
          </g>
          <g id="Group_54508" data-name="Group 54508" transform="translate(1.483 2.867)">
            <path id="Path_17805" data-name="Path 17805" d="M746.137,265.517l.24,1.148-.084.082-.086-.065-.132-1.023.05,1.022-.084.1-.081-.106.07-1.021-.153,1.02-.087.063-.082-.084.263-1.143Z" transform="translate(-745.693 -265.502)" fill="#c09300"/>
            <path id="Path_17806" data-name="Path 17806" d="M745.961,266.734l-.1-.125.047-.676-.1.678-.1.074-.1-.1.268-1.162.188,0,.244,1.167-.1.1-.1-.076-.088-.681.033.677Zm-.067-.133.067.088.069-.086-.049-1.017.028,0,.132,1.017.071.053.069-.068-.236-1.129-.143,0-.259,1.125.068.069.073-.053.152-1.014.028,0Z" transform="translate(-745.613 -265.427)" fill="#c09300"/>
          </g>
          <g id="b" transform="translate(0.753 2.358)">
            <g id="Group_54509" data-name="Group 54509">
              <path id="Path_17807" data-name="Path 17807" d="M741.711,262.372l-.517,1.767.687.112.306-1.33-.475-.549Z" transform="translate(-741.177 -262.357)" fill="#fff"/>
              <path id="Path_17808" data-name="Path 17808" d="M741.8,264.187h0l-.686-.112a.016.016,0,0,1-.011-.007.017.017,0,0,1,0-.013l.518-1.767a.015.015,0,0,1,.011-.011.016.016,0,0,1,.015.005l.475.549a.016.016,0,0,1,0,.014l-.306,1.33A.016.016,0,0,1,741.8,264.187Zm-.666-.141.654.107.3-1.308-.451-.522Z" transform="translate(-741.096 -262.276)" fill="#c09300"/>
            </g>
            <g id="Group_54510" data-name="Group 54510" transform="translate(0.346 0.447)">
              <path id="Path_17809" data-name="Path 17809" d="M743.312,265.376h0a.017.017,0,0,1-.012-.01l-.059-.147.031-.013.049.125.31-.29.023.024-.328.307A.016.016,0,0,1,743.312,265.376Z" transform="translate(-743.238 -265.04)" fill="#c09300"/>
            </g>
            <g id="Group_54511" data-name="Group 54511" transform="translate(0.574 0.252)">
              <path id="Path_17810" data-name="Path 17810" d="M744.724,264.493h0a.017.017,0,0,1-.012-.015l-.061-.638.033,0,.057.6.184-.236.026.02-.209.268A.017.017,0,0,1,744.724,264.493Z" transform="translate(-744.646 -263.837)" fill="#c09300"/>
            </g>
            <g id="Group_54512" data-name="Group 54512" transform="translate(0.761 0.723)">
              <path id="Path_17811" data-name="Path 17811" d="M745.916,267.151l-.109-.39.032-.009.109.391Z" transform="translate(-745.807 -266.751)" fill="#c09300"/>
            </g>
            <g id="Group_54513" data-name="Group 54513" transform="translate(0.186 0.918)">
              <path id="Path_17812" data-name="Path 17812" d="M742.811,268.709l-.062-.309-.136.207a.016.016,0,0,1-.016.007.016.016,0,0,1-.014-.011l-.069-.218-.134.215a.016.016,0,0,1-.016.008.017.017,0,0,1-.014-.012l-.1-.4a.016.016,0,0,1,0-.016l.216-.218a.017.017,0,0,1,.016,0,.016.016,0,0,1,.012.012l.056.206.134-.178a.016.016,0,0,1,.017-.006.017.017,0,0,1,.012.013l.053.313.21-.312.028.018-.229.341.068.338Zm-.292-.38h0a.016.016,0,0,1,.014.011l.07.219.135-.206-.053-.306-.132.175a.016.016,0,0,1-.029-.006L742.47,268l-.189.191.093.353.132-.212A.017.017,0,0,1,742.519,268.328Z" transform="translate(-742.245 -267.956)" fill="#c09300"/>
            </g>
            <g id="Group_54514" data-name="Group 54514" transform="translate(0.149 1.533)">
              <path id="Path_17813" data-name="Path 17813" d="M742.45,272.128l-.069-.217-.107.178a.017.017,0,0,1-.016.008.018.018,0,0,1-.014-.012l-.078-.268-.121.166-.027-.02.141-.193a.016.016,0,0,1,.016-.006.016.016,0,0,1,.013.012l.077.265.107-.177a.016.016,0,0,1,.03,0l.08.252Z" transform="translate(-742.018 -271.762)" fill="#c09300"/>
            </g>
          </g>
          <g id="Group_54521" data-name="Group 54521" transform="translate(1.911 2.369)">
            <g id="b-2" data-name="b">
              <g id="Group_54515" data-name="Group 54515">
                <path id="Path_17814" data-name="Path 17814" d="M748.843,262.443l.482,1.777-.688.1-.28-1.336.486-.54Z" transform="translate(-748.341 -262.427)" fill="#fff"/>
                <path id="Path_17815" data-name="Path 17815" d="M748.555,264.253a.016.016,0,0,1-.015-.013l-.279-1.336a.016.016,0,0,1,0-.014l.486-.54a.015.015,0,0,1,.026.006l.482,1.777a.016.016,0,0,1,0,.013.016.016,0,0,1-.011.007l-.688.1Zm-.262-1.347.275,1.314.656-.094-.469-1.733Z" transform="translate(-748.261 -262.346)" fill="#c09300"/>
              </g>
              <g id="Group_54516" data-name="Group 54516" transform="translate(0.266 0.443)">
                <path id="Path_17816" data-name="Path 17816" d="M750.24,265.427a.017.017,0,0,1-.011,0l-.322-.313.023-.024.3.3.052-.123.031.013-.062.146a.017.017,0,0,1-.012.01Z" transform="translate(-749.907 -265.085)" fill="#c09300"/>
              </g>
              <g id="Group_54517" data-name="Group 54517" transform="translate(0.148 0.251)">
                <path id="Path_17817" data-name="Path 17817" d="M749.394,264.553a.015.015,0,0,1-.013-.006l-.2-.273.027-.02.179.239.069-.6.033,0-.075.637a.016.016,0,0,1-.012.014Z" transform="translate(-749.177 -263.898)" fill="#c09300"/>
              </g>
              <g id="Group_54518" data-name="Group 54518" transform="translate(0.11 0.718)">
                <path id="Path_17818" data-name="Path 17818" d="M748.975,267.186l-.032-.009.117-.389.032.01Z" transform="translate(-748.943 -266.788)" fill="#c09300"/>
              </g>
              <g id="Group_54519" data-name="Group 54519" transform="translate(0.07 0.92)">
                <path id="Path_17819" data-name="Path 17819" d="M748.871,268.784l-.032-.007.075-.336-.222-.345.028-.018.2.316.06-.312a.016.016,0,0,1,.03-.007l.131.181.06-.205a.016.016,0,0,1,.012-.012.016.016,0,0,1,.016,0l.212.222a.017.017,0,0,1,0,.016l-.113.4a.017.017,0,0,1-.014.012.016.016,0,0,1-.016-.008l-.129-.217-.073.217a.017.017,0,0,1-.014.011.016.016,0,0,1-.016-.008l-.132-.209Zm.078-.354.131.209.074-.218a.017.017,0,0,1,.03,0l.128.215.1-.352-.185-.194-.061.211a.017.017,0,0,1-.029.005l-.128-.178Z" transform="translate(-748.691 -268.039)" fill="#c09300"/>
              </g>
              <g id="Group_54520" data-name="Group 54520" transform="translate(0.385 1.537)">
                <path id="Path_17820" data-name="Path 17820" d="M750.671,272.219l-.031-.011.085-.251a.016.016,0,0,1,.014-.011.016.016,0,0,1,.016.008l.1.179.082-.263a.017.017,0,0,1,.013-.011.016.016,0,0,1,.016.007l.137.2-.027.019-.117-.169-.083.267a.017.017,0,0,1-.014.012.017.017,0,0,1-.016-.008l-.1-.18Z" transform="translate(-750.64 -271.859)" fill="#c09300"/>
              </g>
            </g>
          </g>
          <g id="Group_54556" data-name="Group 54556" transform="translate(0.212 4.016)">
            <g id="Group_54522" data-name="Group 54522" transform="translate(0 0.137)">
              <path id="Path_17821" data-name="Path 17821" d="M739.523,274.335a5.519,5.519,0,0,0,1.316-.111c.124-.021.125-.085.126-.168.124-.04.062-.187.148-.186-.087.022-.1-.148-.209-.126,0-.147-.145-.167-.269-.127a4.157,4.157,0,0,1-1.106.09,5.158,5.158,0,0,1-1.1-.113c-.124-.042-.27-.025-.271.121-.105-.024-.126.145-.212.122.086,0,.021.147.144.189,0,.083,0,.147.126.17a5.483,5.483,0,0,0,1.309.137Z" transform="translate(-737.912 -273.544)" fill="#fff"/>
              <path id="Path_17822" data-name="Path 17822" d="M739.362,274.2a5.446,5.446,0,0,1-1.316-.138c-.139-.027-.15-.1-.15-.18a.173.173,0,0,1-.087-.133c-.006-.024-.01-.04-.017-.044l-.017,0a.031.031,0,0,1,.009-.061l.018,0c.017,0,.034-.024.052-.047a10.01,10.01,0,0,0,.3-.219.4.4,0,0,1,.121.022,3.7,3.7,0,0,0,.87.1l.225.011a3.935,3.935,0,0,0,1.093-.089.4.4,0,0,1,.122-.019,8.64,8.64,0,0,0,.3.225c.018.023.034.045.051.048l.019,0a.031.031,0,0,1,.007.061l-.018,0c-.007,0-.011.02-.017.044a.172.172,0,0,1-.09.131.154.154,0,0,1-.15.177A5.516,5.516,0,0,1,739.362,274.2Zm-1.508-.514a.26.26,0,0,1,.016.049c.01.043.018.079.068.1a.032.032,0,0,1,.021.03c0,.083,0,.121.1.14h0a6.989,6.989,0,0,0,2.608.026h0c.1-.017.1-.055.1-.137a.032.032,0,0,1,.022-.029c.05-.016.059-.053.07-.095a.243.243,0,0,1,.016-.049.3.3,0,0,1-.047-.051c-.031-.041-.05-.063-.084-.056a.032.032,0,0,1-.026-.007.032.032,0,0,1-.011-.024c0-.093-.069-.113-.127-.113a.325.325,0,0,0-.1.017,4.023,4.023,0,0,1-1.115.092l-.226-.011a3.766,3.766,0,0,1-.887-.1.333.333,0,0,0-.1-.019c-.058,0-.128.018-.129.111a.03.03,0,0,1-.012.024.029.029,0,0,1-.026.006c-.033-.007-.053.014-.085.055A.287.287,0,0,1,737.854,273.69Z" transform="translate(-737.751 -273.382)" fill="#c09300"/>
            </g>
            <g id="Group_54523" data-name="Group 54523" transform="translate(0.32)">
              <path id="Path_17823" data-name="Path 17823" d="M740.408,272.749a2.112,2.112,0,0,0,.5.028c.083,0,.141.144-.024.165a1.985,1.985,0,0,1-.5-.028c-.1-.02-.334-.064-.48-.106-.146-.065-.039-.188.043-.169a2.71,2.71,0,0,0,.457.11Z" transform="translate(-739.819 -272.621)" fill="#fff"/>
              <path id="Path_17824" data-name="Path 17824" d="M740.659,272.88a2.222,2.222,0,0,1-.36-.034c-.091-.017-.331-.062-.481-.106-.089-.04-.087-.1-.082-.117a.117.117,0,0,1,.113-.086.07.07,0,0,1,.021,0,2.793,2.793,0,0,0,.455.109h0a2.906,2.906,0,0,0,.364.033,1.146,1.146,0,0,0,.133-.006h0a.1.1,0,0,1,.1.094c0,.021,0,.089-.12.1A1.174,1.174,0,0,1,740.659,272.88Zm-.811-.311a.085.085,0,0,0-.08.06c-.007.03.015.058.061.079.146.043.386.088.476.1a2.173,2.173,0,0,0,.354.034,1.193,1.193,0,0,0,.14-.006c.06-.008.093-.033.091-.069a.07.07,0,0,0-.065-.063,1.022,1.022,0,0,1-.135.007,2.959,2.959,0,0,1-.37-.034,2.754,2.754,0,0,1-.46-.111Z" transform="translate(-739.734 -272.536)" fill="#c09300"/>
            </g>
            <g id="Group_54524" data-name="Group 54524" transform="translate(1.726 0.024)">
              <path id="Path_17825" data-name="Path 17825" d="M749.121,272.887a2.078,2.078,0,0,1-.5.017c-.086,0-.148.141.017.166a1.985,1.985,0,0,0,.5-.018c.105-.018.335-.056.482-.1.147-.062.043-.187-.039-.169a2.735,2.735,0,0,1-.459.1Z" transform="translate(-748.518 -272.768)" fill="#fff"/>
              <path id="Path_17826" data-name="Path 17826" d="M748.694,273.01a1.1,1.1,0,0,1-.144-.009c-.115-.017-.119-.085-.118-.105a.1.1,0,0,1,.1-.094,1.047,1.047,0,0,0,.133.009,2.879,2.879,0,0,0,.365-.026,2.726,2.726,0,0,0,.456-.1l.022,0a.117.117,0,0,1,.111.088c0,.022.005.078-.082.115-.153.042-.395.083-.486.1A2.211,2.211,0,0,1,748.694,273.01Zm-.161-.175a.071.071,0,0,0-.067.063c0,.036.03.061.089.07a1.071,1.071,0,0,0,.14.009,2.167,2.167,0,0,0,.355-.027c.09-.015.33-.055.48-.1.044-.019.067-.047.061-.077a.086.086,0,0,0-.093-.06,2.743,2.743,0,0,1-.461.1,2.925,2.925,0,0,1-.369.027A1.052,1.052,0,0,1,748.533,272.836Z" transform="translate(-748.432 -272.683)" fill="#c09300"/>
            </g>
            <g id="Group_54525" data-name="Group 54525" transform="translate(0.214 0.021)">
              <path id="Path_17827" data-name="Path 17827" d="M739.341,272.773a.145.145,0,0,0-.148.205c.019-.041.106-.041.125-.081.023-.064-.018-.064.024-.124Z" transform="translate(-739.164 -272.754)" fill="#fff"/>
              <path id="Path_17828" data-name="Path 17828" d="M739.107,272.909a.017.017,0,0,1-.015-.009.173.173,0,0,1,.014-.162.144.144,0,0,1,.152-.067.018.018,0,0,1,.012.01.016.016,0,0,1,0,.016.058.058,0,0,0-.015.053.093.093,0,0,1-.079.117c-.023.009-.046.018-.053.032a.017.017,0,0,1-.015.009Zm.121-.208a.111.111,0,0,0-.094.054.15.15,0,0,0-.02.1.214.214,0,0,1,.05-.024c.023-.009.047-.018.053-.032a.082.082,0,0,0,0-.048A.082.082,0,0,1,739.228,272.7Z" transform="translate(-739.078 -272.669)" fill="#c09300"/>
            </g>
            <g id="Group_54526" data-name="Group 54526" transform="translate(0.806 0.153)">
              <path id="Path_17829" data-name="Path 17829" d="M742.9,273.847c0-.083.083-.072.084-.155,0-.041-.021-.105-.062-.106a.088.088,0,0,0-.084.082C742.823,273.751,742.906,273.764,742.9,273.847Z" transform="translate(-742.823 -273.57)" fill="#fff"/>
              <path id="Path_17830" data-name="Path 17830" d="M742.818,273.776a.017.017,0,0,1-.016-.017.114.114,0,0,0-.031-.074.116.116,0,0,1-.031-.106.107.107,0,0,1,.1-.1c.053,0,.08.072.079.123a.108.108,0,0,1-.048.089.079.079,0,0,0-.036.065A.016.016,0,0,1,742.818,273.776Zm.021-.26a.073.073,0,0,0-.067.065.008.008,0,0,1,0,0,.083.083,0,0,0,.025.08.3.3,0,0,1,.023.035.178.178,0,0,1,.029-.03.078.078,0,0,0,.036-.065C742.886,273.569,742.867,273.516,742.839,273.516Z" transform="translate(-742.737 -273.482)" fill="#c09300"/>
            </g>
            <g id="Group_54527" data-name="Group 54527" transform="translate(1.413 0.181)">
              <path id="Path_17831" data-name="Path 17831" d="M746.651,273.76c.124,0,.11.167.049.249,0-.06-.1-.084-.1-.125,0-.064.1-.063.055-.124Z" transform="translate(-746.579 -273.743)" fill="#fff"/>
              <path id="Path_17832" data-name="Path 17832" d="M746.613,273.939h0a.017.017,0,0,1-.011-.016c0-.024-.027-.043-.052-.061s-.052-.037-.052-.064a.091.091,0,0,1,.044-.071c.023-.018.027-.023.014-.043a.017.017,0,0,1,.014-.026.1.1,0,0,1,.1.057.237.237,0,0,1-.034.219A.017.017,0,0,1,746.613,273.939Zm-.022-.245a.064.064,0,0,1-.033.058c-.019.016-.031.026-.031.046s.02.024.038.036a.207.207,0,0,1,.054.049.192.192,0,0,0,.013-.154A.066.066,0,0,0,746.591,273.695Z" transform="translate(-746.493 -273.658)" fill="#c09300"/>
            </g>
            <g id="Group_54528" data-name="Group 54528" transform="translate(2.831 0.047)">
              <path id="Path_17833" data-name="Path 17833" d="M755.372,272.93a.145.145,0,0,1,.145.208c-.018-.041-.1-.043-.123-.084-.022-.064.019-.063-.022-.124Z" transform="translate(-755.355 -272.911)" fill="#fff"/>
              <path id="Path_17834" data-name="Path 17834" d="M755.43,273.068h0a.016.016,0,0,1-.015-.01c-.006-.015-.03-.024-.053-.033a.092.092,0,0,1-.076-.119.061.061,0,0,0-.014-.054.016.016,0,0,1,0-.016.016.016,0,0,1,.012-.01.144.144,0,0,1,.151.07.173.173,0,0,1,.011.162A.016.016,0,0,1,755.43,273.068Zm-.117-.21a.081.081,0,0,1,.006.054.085.085,0,0,0,0,.05c.006.013.029.023.052.032a.236.236,0,0,1,.049.025.151.151,0,0,0-.019-.105A.112.112,0,0,0,755.313,272.858Z" transform="translate(-755.269 -272.825)" fill="#c09300"/>
            </g>
            <g id="Group_54529" data-name="Group 54529" transform="translate(2.247 0.167)">
              <path id="Path_17835" data-name="Path 17835" d="M751.837,273.934c0-.083-.082-.073-.081-.156,0-.041.024-.105.065-.1a.089.089,0,0,1,.082.084c.018.083-.065.094-.065.177Z" transform="translate(-751.739 -273.657)" fill="#fff"/>
              <path id="Path_17836" data-name="Path 17836" d="M751.751,273.865a.017.017,0,0,1-.016-.017.077.077,0,0,0-.035-.065.11.11,0,0,1-.046-.09c0-.051.029-.122.082-.121a.106.106,0,0,1,.1.1.116.116,0,0,1-.033.105.114.114,0,0,0-.033.074A.016.016,0,0,1,751.751,273.865Zm-.016-.26c-.027,0-.047.052-.048.088a.077.077,0,0,0,.035.066.186.186,0,0,1,.029.03.239.239,0,0,1,.024-.034.085.085,0,0,0,.026-.079.006.006,0,0,1,0,0A.072.072,0,0,0,751.735,273.605Z" transform="translate(-751.654 -273.572)" fill="#c09300"/>
            </g>
            <g id="Group_54530" data-name="Group 54530" transform="translate(1.639 0.184)">
              <path id="Path_17837" data-name="Path 17837" d="M748.094,273.777c-.124,0-.114.164-.054.248,0-.06.106-.082.106-.123C748.146,273.838,748.052,273.837,748.094,273.777Z" transform="translate(-747.98 -273.76)" fill="#fff"/>
              <path id="Path_17838" data-name="Path 17838" d="M747.953,273.956a.017.017,0,0,1-.013-.007.238.238,0,0,1-.03-.219.1.1,0,0,1,.1-.055.015.015,0,0,1,.014.009.016.016,0,0,1,0,.017c-.013.02-.009.024.013.043a.092.092,0,0,1,.042.072c0,.027-.026.045-.053.063s-.053.036-.053.06a.017.017,0,0,1-.012.016Zm.028-.244a.065.065,0,0,0-.041.034.192.192,0,0,0,.01.155.206.206,0,0,1,.055-.048c.018-.012.038-.026.038-.036s-.011-.03-.03-.046A.064.064,0,0,1,747.981,273.711Z" transform="translate(-747.894 -273.675)" fill="#c09300"/>
            </g>
            <g id="Group_54539" data-name="Group 54539" transform="translate(0.421 0.071)">
              <g id="Group_54531" data-name="Group 54531">
                <path id="Path_17839" data-name="Path 17839" d="M740.428,273.045a.2.2,0,0,1,.123.043l-.124-.043Z" transform="translate(-740.417 -273.033)" fill="#fff"/>
                <path id="Path_17840" data-name="Path 17840" d="M740.492,273.038h0l-.123-.042h0a.012.012,0,0,1,0-.015.012.012,0,0,1,.012-.007.222.222,0,0,1,.129.044.013.013,0,0,1,0,.01.012.012,0,0,1-.012.011Z" transform="translate(-740.357 -272.972)" fill="#c09300"/>
              </g>
              <g id="Group_54532" data-name="Group 54532" transform="translate(0.206 0.066)">
                <path id="Path_17841" data-name="Path 17841" d="M741.7,273.453a.461.461,0,0,1,.146.043l-.146-.043Z" transform="translate(-741.689 -273.441)" fill="#fff"/>
                <path id="Path_17842" data-name="Path 17842" d="M741.786,273.447h0l-.145-.042a.012.012,0,0,1-.008,0,.012.012,0,0,1,0-.014.011.011,0,0,1,.012,0,.484.484,0,0,1,.148.043.012.012,0,0,1,.008.011.011.011,0,0,1-.012.012Z" transform="translate(-741.628 -273.38)" fill="#c09300"/>
              </g>
              <g id="Group_54533" data-name="Group 54533" transform="translate(0.81 0.156)">
                <path id="Path_17843" data-name="Path 17843" d="M745.586,274.009a.35.35,0,0,0-.146.017l.146-.018Z" transform="translate(-745.427 -273.998)" fill="#fff"/>
                <path id="Path_17844" data-name="Path 17844" d="M745.377,273.978a.012.012,0,0,1-.007-.021.313.313,0,0,1,.152-.02h0a.012.012,0,0,1,.011.018.013.013,0,0,1-.011.006l-.145.017Z" transform="translate(-745.366 -273.938)" fill="#c09300"/>
              </g>
              <g id="Group_54534" data-name="Group 54534" transform="translate(0.581 0.136)">
                <path id="Path_17845" data-name="Path 17845" d="M744.168,273.9a.165.165,0,0,0-.146,0l.146,0Z" transform="translate(-744.011 -273.875)" fill="#fff"/>
                <path id="Path_17846" data-name="Path 17846" d="M744.108,273.856l-.146,0a.011.011,0,0,1-.011-.009.012.012,0,0,1,.006-.013.191.191,0,0,1,.086-.017.119.119,0,0,1,.074.021.011.011,0,0,1,0,.012A.012.012,0,0,1,744.108,273.856Z" transform="translate(-743.95 -273.815)" fill="#c09300"/>
              </g>
              <g id="Group_54535" data-name="Group 54535" transform="translate(2.249 0.024)">
                <path id="Path_17847" data-name="Path 17847" d="M754.47,273.193a.215.215,0,0,0-.124.04Z" transform="translate(-754.334 -273.181)" fill="#fff"/>
                <path id="Path_17848" data-name="Path 17848" d="M754.285,273.183a.012.012,0,0,1-.01-.005.011.011,0,0,1,0-.014.223.223,0,0,1,.132-.044.011.011,0,0,1,.011.01.011.011,0,0,1-.008.013l-.124.04Z" transform="translate(-754.274 -273.12)" fill="#c09300"/>
              </g>
              <g id="Group_54536" data-name="Group 54536" transform="translate(2.019 0.086)">
                <path id="Path_17849" data-name="Path 17849" d="M753.072,273.576a.463.463,0,0,0-.147.04l.147-.04Z" transform="translate(-752.913 -273.564)" fill="#fff"/>
                <path id="Path_17850" data-name="Path 17850" d="M752.864,273.567a.012.012,0,0,1-.011-.007.012.012,0,0,1,.005-.015.473.473,0,0,1,.151-.041.012.012,0,0,1,.012.006.012.012,0,0,1,0,.014l-.006,0-.145.039Z" transform="translate(-752.853 -273.504)" fill="#c09300"/>
              </g>
              <g id="Group_54537" data-name="Group 54537" transform="translate(1.414 0.161)">
                <path id="Path_17851" data-name="Path 17851" d="M749.18,274.038a.357.357,0,0,1,.146.02l-.146-.02Z" transform="translate(-749.168 -274.027)" fill="#fff"/>
                <path id="Path_17852" data-name="Path 17852" d="M749.265,274.01h0l-.145-.02a.013.013,0,0,1-.008,0,.012.012,0,0,1,0-.013.012.012,0,0,1,.012-.006h0a.336.336,0,0,1,.15.021.012.012,0,0,1-.005.022Z" transform="translate(-749.107 -273.967)" fill="#c09300"/>
              </g>
              <g id="Group_54538" data-name="Group 54538" transform="translate(1.643 0.147)">
                <path id="Path_17853" data-name="Path 17853" d="M750.6,273.969a.167.167,0,0,1,.147,0H750.6Z" transform="translate(-750.584 -273.941)" fill="#fff"/>
                <path id="Path_17854" data-name="Path 17854" d="M750.682,273.922l-.146,0a.011.011,0,0,1-.011-.012.011.011,0,0,1,0-.009.122.122,0,0,1,.073-.018.194.194,0,0,1,.086.019.012.012,0,0,1-.006.022Z" transform="translate(-750.525 -273.881)" fill="#c09300"/>
              </g>
            </g>
            <g id="Group_54555" data-name="Group 54555" transform="translate(0.338 0.296)">
              <g id="Group_54540" data-name="Group 54540" transform="translate(0.038 0.068)">
                <path id="Path_17855" data-name="Path 17855" d="M740.1,274.834a.021.021,0,0,1-.018-.027c0-.016.017-.025.029-.021s.021.017.022.022-.008.02-.011.02l0,0a.02.02,0,0,1-.018,0Z" transform="translate(-740.079 -274.785)" fill="#c09300"/>
              </g>
              <g id="Group_54541" data-name="Group 54541" transform="translate(1.48 0.188)">
                <path id="Path_17856" data-name="Path 17856" d="M749.015,275.575a.031.031,0,0,1-.013-.019.035.035,0,0,1,.025-.026.048.048,0,0,1,.022.012.021.021,0,0,1,0,.032.04.04,0,0,1-.029,0Z" transform="translate(-749.001 -275.529)" fill="#c09300"/>
              </g>
              <g id="Group_54542" data-name="Group 54542" transform="translate(1.486 0.25)">
                <path id="Path_17857" data-name="Path 17857" d="M749.056,275.962a.021.021,0,0,1-.016-.022c0-.013,0-.015.014-.022l.009,0,.009,0c.013.006.018.012.019.02a.027.027,0,0,1-.017.023.019.019,0,0,1-.019,0Z" transform="translate(-749.04 -275.913)" fill="#c09300"/>
              </g>
              <g id="Group_54543" data-name="Group 54543">
                <path id="Path_17858" data-name="Path 17858" d="M740.016,274.365a.066.066,0,0,0-.029.012c-.017,0-.037.014-.053,0s-.038,0-.04.019a.028.028,0,0,0,.042.016c.011-.014.04-.022.043,0s-.011.042-.021.061a.081.081,0,0,1-.013.034.066.066,0,0,0-.035.007.055.055,0,0,0-.043.022.125.125,0,0,0-.024.049c0,.019.024.025.041.026l.052.017c.028.007.055.017.083.024s.085.019.126.031l.013,0c.017,0,.026-.015.028-.029.009-.03.015-.061.024-.091.006-.012.013-.04-.01-.034s-.025.02-.042.021-.01.025,0,.035a.061.061,0,0,1-.013.045c-.014.009-.031,0-.045-.005s-.045-.008-.031-.028.006-.032.012-.047a.221.221,0,0,0,.013-.051c-.009-.02-.026.007-.038.009s-.042.008-.025.024,0,.032,0,.046-.022.025-.039.02-.039-.013-.025-.031.009-.03.012-.045l.019-.054a.151.151,0,0,1,.017-.045c0-.018.013-.034.013-.051s-.005-.012-.01-.013Zm-.1.189h.005c.007,0,.007.008,0,.014s-.006.005-.007,0-.016,0-.016-.008,0,0,.009-.009l.009,0Z" transform="translate(-739.843 -274.365)" fill="#c09300"/>
              </g>
              <g id="Group_54544" data-name="Group 54544" transform="translate(0.041 0.281)">
                <path id="Path_17859" data-name="Path 17859" d="M740.1,276.142c-.013-.013-.01-.022.009-.036s.013,0,.022,0,.015.022,0,.033a.02.02,0,0,1-.016.007.021.021,0,0,1-.017-.007Z" transform="translate(-740.094 -276.103)" fill="#c09300"/>
              </g>
              <g id="Group_54545" data-name="Group 54545" transform="translate(0.111 0.304)">
                <path id="Path_17860" data-name="Path 17860" d="M740.549,276.286a.023.023,0,0,1-.016-.029c0-.011.005-.012.022-.012s.022,0,.022.02,0,.011-.005.015a.027.027,0,0,1-.023.006Z" transform="translate(-740.532 -276.245)" fill="#c09300"/>
              </g>
              <g id="Group_54546" data-name="Group 54546" transform="translate(2.454 0.328)">
                <path id="Path_17861" data-name="Path 17861" d="M755.035,276.434c-.006-.005-.007-.007-.007-.013s.006-.019.02-.025.025-.007.032.005.008.022,0,.033-.007.006-.021.006-.015,0-.021-.006Z" transform="translate(-755.027 -276.391)" fill="#c09300"/>
              </g>
              <g id="Group_54547" data-name="Group 54547" transform="translate(0.22 0.336)">
                <path id="Path_17862" data-name="Path 17862" d="M741.216,276.484a.02.02,0,0,1-.015-.021c0-.009,0-.01.007-.015a.031.031,0,0,1,.015-.006.016.016,0,0,1,.015,0c.014.01.017.02.009.03a.027.027,0,0,1-.031.009Z" transform="translate(-741.202 -276.441)" fill="#c09300"/>
              </g>
              <g id="Group_54548" data-name="Group 54548" transform="translate(0.8 0.132)">
                <path id="Path_17863" data-name="Path 17863" d="M744.8,275.462s-.007,0-.007-.008a.157.157,0,0,1,.007-.043.253.253,0,0,1,.005-.041c.005-.024.005-.049.011-.073a.149.149,0,0,1,.006-.037c0-.019,0-.039.007-.057s.008-.026.014-.015a.258.258,0,0,0,.037.04c.012.007,0,.016-.007.02a.024.024,0,0,0-.013.026c0,.011-.006.021-.007.032s0,.033,0,.049a.245.245,0,0,0,0,.049c0,.01-.005.02,0,.031a.043.043,0,0,1-.011.03.025.025,0,0,1-.028,0Z" transform="translate(-744.796 -275.185)" fill="#c09300"/>
              </g>
              <g id="Group_54549" data-name="Group 54549" transform="translate(1.505 0.161)">
                <path id="Path_17864" data-name="Path 17864" d="M749.237,275.36a.352.352,0,0,0-.036.031c-.016.011.013.018.016.029a.269.269,0,0,1,0,.047.123.123,0,0,1,.005.045c0,.016-.023.013-.032.021s-.018.018-.028.027a.118.118,0,0,0-.01.042c0,.012-.008.025,0,.035l0,.005s.009,0,.013,0a.118.118,0,0,0,.039,0,.731.731,0,0,1,.1-.007c.02,0,.039-.006.058-.005s.022-.013.022-.025,0-.037-.007-.055a.28.28,0,0,1-.006-.056.016.016,0,0,0-.028-.009c-.009.009-.023.01-.03.021s.016.016.02.028a.141.141,0,0,1,0,.039c0,.016-.014.016-.025.018s-.034.008-.042-.009a.146.146,0,0,1-.005-.039c0-.023-.006-.046-.006-.07s-.006-.057-.007-.086c0-.012,0-.031-.019-.028Zm-.019.216h.008v.019l-.011,0-.011,0,0,0c-.006,0,0-.01,0-.018a.013.013,0,0,1,.013,0Z" transform="translate(-749.154 -275.359)" fill="#c09300"/>
              </g>
              <g id="Group_54550" data-name="Group 54550" transform="translate(0.319 0.125)">
                <path id="Path_17865" data-name="Path 17865" d="M742.284,275.141c-.01,0-.023.018-.033.018s-.02.024,0,.032a.134.134,0,0,1,0,.023c0,.021-.01.037-.008.058s-.009.045-.01.068-.007.048-.011.072-.018.014-.032.008,0-.019,0-.028-.011-.027-.028-.03a.022.022,0,0,1-.022-.03c.008-.009.027-.006.039-.008s.025-.029.012-.041-.031-.024-.037-.041a.062.062,0,0,0-.031-.057.067.067,0,0,0-.061.046l-.035.011c-.019,0-.045.037-.02.049s.058.014.038.034a.04.04,0,0,1-.05.014c-.019,0-.04-.01-.039-.032a.227.227,0,0,0-.012-.059c0-.022-.029-.017-.03,0a.035.035,0,0,0,0,.053.073.073,0,0,1-.009.059c-.005.023-.03.023-.048.031s-.043,0-.031.017a.114.114,0,0,0,.064.009.069.069,0,0,0,.051-.035c.015-.014.039-.007.058-.007s.041.015.06.005.033-.039.04-.013a.032.032,0,0,0,.039.032c.022,0,.014.016.013.03a.057.057,0,0,0,.037.048.048.048,0,0,0,.021,0c.019-.006.041-.015.047-.036a.444.444,0,0,0,.014-.056.645.645,0,0,0,.012-.089c.008-.027.006-.056.012-.083s.006-.041.009-.061-.007-.013-.013-.011Zm-.179.107s.006.006.007.014a.019.019,0,0,0,.011.019s0,.006,0,.01a.031.031,0,0,1-.018,0,.042.042,0,0,1-.033-.013l0-.005.007,0,.015-.013c.007-.008.013-.011.016-.01Z" transform="translate(-741.815 -275.14)" fill="#c09300"/>
              </g>
              <g id="Group_54551" data-name="Group 54551" transform="translate(1.889 0.044)">
                <path id="Path_17866" data-name="Path 17866" d="M751.98,274.637a.223.223,0,0,0-.044.006c-.027,0-.041.026-.015.04.015.04.04-.008.065,0s.04.048.046.079a.4.4,0,0,0,.019.089c.025.028-.019.045-.038.023s-.05-.039-.069-.015-.025.041-.045.05-.035-.03-.052-.046-.045-.024-.068-.032c-.011-.023,0-.062-.028-.077-.02.008-.056.044-.026.061s-.013.037-.027.054a.135.135,0,0,0-.026.077c-.033.018-.039-.021-.043-.045s-.027-.021-.044-.01-.038.033-.055.052a.482.482,0,0,0,0,.053c.005.021.031.012.047.011s.036.017.015.032-.058.008-.054.036a.229.229,0,0,0,.043,0,.076.076,0,0,0,.063-.059c0-.028.044-.022.066-.028s.06-.009.066.025c.019.02.059.042.079.016a.063.063,0,0,0,.03-.059c0-.02.033-.021.043-.01s.056.016.077,0,.027-.044.058-.044c.047-.013.1-.021.141-.038s-.005-.031-.014-.045c-.028-.014-.053.043-.084.014s-.022-.055-.031-.082a.2.2,0,0,0-.029-.105.081.081,0,0,0-.066-.023Zm-.181.246a.029.029,0,0,1,.013,0,.034.034,0,0,1,.019.026c0,.006,0,.006-.01.01l-.013,0s-.016-.01-.016-.013a.063.063,0,0,0,0-.012c0-.008,0-.008,0-.014S751.8,274.884,751.8,274.884Zm.171.01a.018.018,0,0,1,.02.01c0,.009,0,.015-.011.02l-.012,0-.01-.006c-.007,0-.008-.007-.008-.012S751.958,274.9,751.969,274.894Zm-.234,0a.013.013,0,0,1,.009,0,.021.021,0,0,1,.007.016.069.069,0,0,1,0,.016c0,.006,0,.006-.015.006s-.018,0-.018-.017,0-.013.006-.018A.022.022,0,0,1,751.736,274.894Zm-.144.036a.015.015,0,0,1,.011.012c0,.008,0,.012-.007.015a.036.036,0,0,1-.023,0l-.005-.005a0,0,0,0,1,0-.006l0,0a.026.026,0,0,1,0-.008.015.015,0,0,1,.015-.006Zm.242.034a.016.016,0,0,1,.011,0,.009.009,0,0,1,0,.015.058.058,0,0,1-.029,0s0,0,0-.006,0-.006.008-.009a.035.035,0,0,1,.016,0Z" transform="translate(-751.529 -274.637)" fill="#c09300"/>
              </g>
              <g id="Group_54552" data-name="Group 54552" transform="translate(1.738 0.282)">
                <path id="Path_17867" data-name="Path 17867" d="M750.6,276.322s-.006,0,0-.006a.038.038,0,0,1,.022-.013.09.09,0,0,0,.036-.029c0-.009.011-.013.011-.022a.14.14,0,0,0,0-.038.047.047,0,0,0-.021-.026c-.007,0-.018-.007-.02-.016s.007-.016.01-.024.011-.022.018-.033.017,0,.021.008a.081.081,0,0,1,.011.023.072.072,0,0,1,.018.031.056.056,0,0,1,.009.025c0,.011.006.021.005.032a.116.116,0,0,1-.005.044c0,.008-.011.012-.016.019a.094.094,0,0,1-.028.019c-.008,0-.012.011-.022.009a.262.262,0,0,1-.04,0s0,0,0,0Z" transform="translate(-750.596 -276.112)" fill="#c09300"/>
              </g>
              <g id="Group_54553" data-name="Group 54553" transform="translate(1.555 0.461)">
                <path id="Path_17868" data-name="Path 17868" d="M749.471,277.261c-.006-.007-.008-.009-.007-.016a.017.017,0,0,1,.007-.015c.012-.012.017-.012.037,0s.025.011.027,0a.024.024,0,0,1,.023-.012.019.019,0,0,1,.015.006c.007,0,.007.006.007.018s0,.013-.008.019-.009.007-.018.006a.02.02,0,0,1-.02-.016c0-.007,0-.008-.006,0s0,0-.006,0a.062.062,0,0,0-.021.013.022.022,0,0,1-.014,0,.018.018,0,0,1-.018-.008Z" transform="translate(-749.464 -277.22)" fill="#c09300"/>
              </g>
              <g id="Group_54554" data-name="Group 54554" transform="translate(0.826 0.264)">
                <path id="Path_17869" data-name="Path 17869" d="M745.174,276a.041.041,0,0,0-.039.032c0,.02.02.039.009.06.007.027-.02.037-.039.021a.383.383,0,0,0-.033-.076c-.021-.006-.031.027-.045.039.007.02.028.038.03.063a.063.063,0,0,1-.031.063c-.018.017-.042.011-.065.014s.02.022.032.022a.09.09,0,0,0,.076-.021c.02-.009.019-.044.043-.048.042,0,.083.007.124.009.022.006.057,0,.072.015a.07.07,0,0,0,.048.059c.013,0,.027-.012.04-.015s.018-.039.033-.051c.043,0,.087,0,.13,0,.008,0,.011-.011.017-.017s0-.033,0-.05,0-.049-.013-.066-.04.014-.062.015a.073.073,0,0,0-.046.06c-.015.023-.037,0-.029-.024a.131.131,0,0,0,0-.026c-.013-.016-.036-.011-.055-.014s-.053-.005-.079,0a.385.385,0,0,1-.07,0c-.027,0-.023-.027-.028-.046a.03.03,0,0,0-.016-.005Zm.051.1.026,0c.011,0,.023,0,.034,0s.051,0,.077.007c.007,0,.012,0,.016.009s0,.036,0,.054,0,.016,0,.02l-.007,0a.032.032,0,0,1-.018-.014.192.192,0,0,1,0-.028.022.022,0,0,0,0-.008.03.03,0,0,0-.019-.006l-.066,0a.277.277,0,0,1-.056,0c-.007,0-.016,0-.02-.009s0-.016.009-.019a.062.062,0,0,1,.026,0Zm.3.01s.005,0,.007.009l0,.013s0,0,0,.006-.026,0-.03,0,0-.011,0-.015a.041.041,0,0,1,.02-.011Z" transform="translate(-744.954 -275.998)" fill="#c09300"/>
              </g>
            </g>
          </g>
          <g id="Group_54557" data-name="Group 54557" transform="translate(1.059 1.331)">
            <path id="Path_17870" data-name="Path 17870" d="M743.851,257.918a1.992,1.992,0,0,0,.8-1.612.35.35,0,0,1-.067.006,1.272,1.272,0,0,1-.7-.24,1.456,1.456,0,0,1-.724.225.343.343,0,0,1-.066-.007,1.989,1.989,0,0,0,.764,1.628Z" transform="translate(-743.07 -256.048)" fill="#fff"/>
            <path id="Path_17871" data-name="Path 17871" d="M743.775,257.814l-.009-.007a2.02,2.02,0,0,1-.77-1.641v-.017l.017,0a.3.3,0,0,0,.063.007,1.44,1.44,0,0,0,.713-.221l.012-.013.011.014a1.268,1.268,0,0,0,.692.234.312.312,0,0,0,.064-.006l.017,0v.017a2.022,2.022,0,0,1-.8,1.625Zm-.75-1.629a.977.977,0,1,0,1.533.015.366.366,0,0,1-.052,0,1.352,1.352,0,0,1-.705-.233,1.523,1.523,0,0,1-.723.219A.385.385,0,0,1,743.025,256.186Z" transform="translate(-742.994 -255.926)" fill="#c09300"/>
          </g>
          <g id="Group_54558" data-name="Group 54558" transform="translate(1.131 1.428)">
            <path id="Path_17872" data-name="Path 17872" d="M744.939,256.837h-.022a1.4,1.4,0,0,1-.683-.215,1.578,1.578,0,0,1-.7.2l-.022,0c0,.037,0,.075,0,.109a1.9,1.9,0,0,0,.061.382.7.7,0,1,0,1.287.012,1.938,1.938,0,0,0,.069-.38c0-.034,0-.07.005-.106Z" transform="translate(-743.501 -256.606)" fill="#fff"/>
            <path id="Path_17873" data-name="Path 17873" d="M744.149,258.224l-.007-.006a1.9,1.9,0,0,1-.7-1.369c0-.028,0-.069,0-.109v-.014l.014,0,.02,0a1.57,1.57,0,0,0,.69-.2l.008-.006.007.006a1.4,1.4,0,0,0,.675.212h.034v.013c0,.039,0,.078,0,.107a1.907,1.907,0,0,1-.07.383,1.886,1.886,0,0,1-.658.973Zm-.685-1.47c0,.035,0,.07,0,.094a1.917,1.917,0,0,0,.061.379.689.689,0,1,0,1.265.012,1.9,1.9,0,0,0,.069-.378c0-.025,0-.059,0-.093h-.01a1.426,1.426,0,0,1-.683-.212,1.6,1.6,0,0,1-.7.2Z" transform="translate(-743.439 -256.525)" fill="#c09300"/>
          </g>
          <g id="Group_54559" data-name="Group 54559" transform="translate(1.144 1.57)">
            <path id="Path_17874" data-name="Path 17874" d="M743.951,257.4a1.624,1.624,0,0,1-.413.075l-.022,0c0,.037,0,.075,0,.109a1.93,1.93,0,0,0,.061.381,1.859,1.859,0,0,0,.359.7l.012-1.267Z" transform="translate(-743.516 -257.4)" fill="#c09300"/>
          </g>
          <g id="Group_54560" data-name="Group 54560" transform="translate(2.106 1.573)">
            <path id="Path_17875" data-name="Path 17875" d="M749.482,257.42l-.013,1.289a1.86,1.86,0,0,0,.389-.718,1.928,1.928,0,0,0,.068-.379c0-.034.005-.071.005-.107h-.022a1.581,1.581,0,0,1-.428-.086Z" transform="translate(-749.469 -257.42)" fill="#c09300"/>
          </g>
          <g id="Group_54569" data-name="Group 54569" transform="translate(1.307)">
            <g id="Group_54561" data-name="Group 54561">
              <path id="Path_17876" data-name="Path 17876" d="M745.578,249.032c.018,0-.023-.094-.023-.094.046.048.22.061.22.061-.1-.047-.205-.4-.19-.675s-.036-.39-.077-.431a.663.663,0,0,0-.331-.108c-.062,0-.053.047-.053.047a.424.424,0,0,0-.284-.009c-.049.032-.062.2-.025.168.088-.069.163,0,.215.072a.7.7,0,0,1-.028.476,1.6,1.6,0,0,1-.265.461.613.613,0,0,0,.25-.09l-.036.144a.884.884,0,0,0,.2-.132l.1.111a1.1,1.1,0,0,1,.106-.109.38.38,0,0,0,.22.107Z" transform="translate(-744.703 -247.769)" fill="#fff"/>
              <path id="Path_17877" data-name="Path 17877" d="M744.751,249l.036-.14a.549.549,0,0,1-.226.073h-.034l.022-.026a1.6,1.6,0,0,0,.262-.456.683.683,0,0,0,.03-.462c-.029-.043-.074-.094-.126-.094a.1.1,0,0,0-.066.026.029.029,0,0,1-.018.007c-.005,0-.019,0-.025-.024a.21.21,0,0,1,.05-.177.4.4,0,0,1,.278,0,.055.055,0,0,1,.01-.023.065.065,0,0,1,.058-.019.67.67,0,0,1,.341.112c.045.046.1.16.081.443a.924.924,0,0,0,.181.66l-.008.03a.7.7,0,0,1-.187-.038c.017.049.01.058.007.063a.019.019,0,0,1-.016.008h0a.394.394,0,0,1-.22-.1.951.951,0,0,0-.093.1l-.012.015-.106-.113a.894.894,0,0,1-.191.124Zm.085-.207-.038.149a.913.913,0,0,0,.164-.113l.012-.011.1.109a1.21,1.21,0,0,1,.1-.1l.012-.011.01.011a.369.369,0,0,0,.2.1.514.514,0,0,0-.024-.069l.026-.018a.333.333,0,0,0,.157.05,1.118,1.118,0,0,1-.155-.654c.015-.285-.039-.385-.072-.419a.649.649,0,0,0-.32-.1h0a.038.038,0,0,0-.027.008.027.027,0,0,0,0,.02l0,.025-.024-.006a.419.419,0,0,0-.272-.011.123.123,0,0,0-.034.073.2.2,0,0,0,0,.064c.078-.056.159-.027.232.08a.715.715,0,0,1-.026.49,1.531,1.531,0,0,1-.245.438.7.7,0,0,0,.206-.085Z" transform="translate(-744.527 -247.688)" fill="#c09300"/>
            </g>
            <g id="Group_54562" data-name="Group 54562" transform="translate(0.272 0.588)">
              <path id="Path_17878" data-name="Path 17878" d="M746.236,251.891l-.025-.023a1.544,1.544,0,0,0,.17-.542l.033.005A1.538,1.538,0,0,1,746.236,251.891Z" transform="translate(-746.211 -251.327)" fill="#c09300"/>
            </g>
            <g id="Group_54563" data-name="Group 54563" transform="translate(0.432 0.579)">
              <path id="Path_17879" data-name="Path 17879" d="M747.229,251.856l-.029-.016a2.152,2.152,0,0,0,.1-.567l.033,0A2.113,2.113,0,0,1,747.229,251.856Z" transform="translate(-747.2 -251.273)" fill="#c09300"/>
            </g>
            <g id="Group_54564" data-name="Group 54564" transform="translate(0.616 0.599)">
              <path id="Path_17880" data-name="Path 17880" d="M748.361,251.956a4.042,4.042,0,0,1-.024-.563h.033a3.887,3.887,0,0,0,.022.552Z" transform="translate(-748.336 -251.393)" fill="#c09300"/>
            </g>
            <g id="Group_54565" data-name="Group 54565" transform="translate(0.719 0.623)">
              <path id="Path_17881" data-name="Path 17881" d="M749.1,252.1a1.532,1.532,0,0,1-.12-.555l.033,0a1.539,1.539,0,0,0,.114.538Z" transform="translate(-748.978 -251.54)" fill="#c09300"/>
            </g>
            <g id="Group_54566" data-name="Group 54566" transform="translate(0.104 0.123)">
              <path id="Path_17882" data-name="Path 17882" d="M745.467,248.729a.2.2,0,0,0-.027-.088c-.052-.077-.127-.141-.215-.072,0,0,.031-.092.094-.095s.161.038.257.208c0,0-.073-.017-.09,0-.033.028-.02.048-.02.048Z" transform="translate(-745.216 -248.471)" fill="#c09300"/>
              <path id="Path_17883" data-name="Path 17883" d="M745.416,248.708a.028.028,0,0,1,0-.018.178.178,0,0,0-.024-.07c-.068-.1-.139-.125-.208-.071l-.012.01,0-.014s.032-.1.1-.1h.005c.063,0,.168.056.256.211l.006.009-.01,0a.311.311,0,0,0-.06-.008.04.04,0,0,0-.027.005.056.056,0,0,0-.02.029s0,.009,0,.014Zm-.161-.2c.049,0,.1.035.142.1a.176.176,0,0,1,.022.058.086.086,0,0,1,.018-.02.051.051,0,0,1,.033-.007.366.366,0,0,1,.051.006c-.112-.19-.23-.2-.243-.2h0c-.045,0-.073.051-.084.077A.117.117,0,0,1,745.255,248.511Z" transform="translate(-745.169 -248.446)" fill="#c09300"/>
            </g>
            <g id="Group_54567" data-name="Group 54567" transform="translate(0.099 0.011)">
              <path id="Path_17884" data-name="Path 17884" d="M745.165,247.879a.1.1,0,0,1,.033-.054.427.427,0,0,1,.284.009s-.01-.05.053-.046a.662.662,0,0,1,.33.108.211.211,0,0,1,.038.063h0c-.025-.036-.1-.035-.116-.033a.517.517,0,0,0-.082.01.163.163,0,0,0-.059.021c-.011.009-.021.042-.039.042s-.025-.007-.032-.016-.014-.028-.023-.027c-.029.005-.075-.018-.133-.065a.179.179,0,0,0-.157-.054.12.12,0,0,0-.1.047l0,0Z" transform="translate(-745.159 -247.783)" fill="#c09300"/>
              <path id="Path_17885" data-name="Path 17885" d="M745.586,247.978c-.023,0-.028-.005-.033-.013l0,0-.008-.013c0-.006-.008-.013-.011-.013-.03,0-.076-.017-.137-.066a.171.171,0,0,0-.123-.054h-.029a.12.12,0,0,0-.1.045l-.008,0,0,0a.108.108,0,0,1,.035-.057.184.184,0,0,1,.1-.021.765.765,0,0,1,.18.028.045.045,0,0,1,.01-.029.054.054,0,0,1,.049-.016.657.657,0,0,1,.334.109.207.207,0,0,1,.039.065l0,.006h-.011v0c-.02-.028-.071-.032-.092-.032h-.041a.322.322,0,0,0-.06.009h-.006a.14.14,0,0,0-.051.018.071.071,0,0,0-.011.016C745.608,247.963,745.6,247.978,745.586,247.978Zm-.055-.052c.008,0,.013.008.019.017a.064.064,0,0,0,.008.012l0,.005c0,.005.006.009.025.009s.016-.013.022-.023a.072.072,0,0,1,.014-.019.152.152,0,0,1,.055-.02h.006a.358.358,0,0,1,.062-.009h.041a.157.157,0,0,1,.085.021.184.184,0,0,0-.029-.043.656.656,0,0,0-.327-.107.048.048,0,0,0-.041.012.038.038,0,0,0-.007.029v.007l-.007,0a.79.79,0,0,0-.184-.029.18.18,0,0,0-.1.02.077.077,0,0,0-.025.034.146.146,0,0,1,.086-.03h.03a.181.181,0,0,1,.13.056c.057.046.1.068.129.064Z" transform="translate(-745.137 -247.757)" fill="#c09300"/>
            </g>
            <g id="Group_54568" data-name="Group 54568" transform="translate(0.503 0.118)">
              <path id="Path_17886" data-name="Path 17886" d="M747.669,248.42a.031.031,0,1,1-.031.03A.031.031,0,0,1,747.669,248.42Z" transform="translate(-747.638 -248.42)" fill="#fff"/>
            </g>
          </g>
        </g>
      </g>
      <rect id="Rectangle_5139" data-name="Rectangle 5139" width="24.007" height="5.357" fill="#ce1126"/>
      <rect id="Rectangle_5140" data-name="Rectangle 5140" width="24.007" height="5.357" transform="translate(0 10.643)"/>
    </g>
  </g>
</svg>
