<svg xmlns="http://www.w3.org/2000/svg" width="24" height="24" viewBox="0 0 24 24">
  <path id="Path_16686" data-name="Path 16686" d="M542.658,537.251h-1.215V526.478a2.776,2.776,0,0,0,1.169-1.05,3.907,3.907,0,0,0,.505-2.806l-.565-2.971-.01-.026a.683.683,0,0,0-.038-.114l-.021-.05-.008-.017-2.486-4.206a1.592,1.592,0,0,0-1.342-.843H523.533a1.587,1.587,0,0,0-1.34.843l-2.486,4.206-.015.033-.023.057a.523.523,0,0,0-.036.124l-.01.036-.4,3.173a3.875,3.875,0,0,0,.607,2.659,2.74,2.74,0,0,0,1.106.95v10.775h-1.215a.585.585,0,0,0,0,1.145h22.94a.585.585,0,0,0,0-1.145Zm-.77-12.532a1.637,1.637,0,0,1-1.365.819h-.388a1.957,1.957,0,0,1-1.736-1.99l-.027-.429h0l-.175-2.766h3.539l.482,2.53A2.554,2.554,0,0,1,541.888,524.719Zm-4.435-1.509a2.468,2.468,0,0,1-.459,1.633,1.59,1.59,0,0,1-1.277.7H535.5a1.987,1.987,0,0,1-1.741-2.159v-3.025h3.516l.154,2.411Zm-1.313-7.669.929,3.67h-3.36l-.309-3.67Zm-6.789,4.813h3.481v3.025a1.781,1.781,0,1,1-3.481,0Zm3.429-1.142H529.4l.309-3.67h2.761Zm-4.307,0h-3.362l.931-3.67h2.74Zm-3.715,3.554.152-2.411h3.517v3.025a1.987,1.987,0,0,1-1.741,2.159h-.221a1.593,1.593,0,0,1-1.279-.7,2.467,2.467,0,0,1-.457-1.633Zm1.523,3.9a1.6,1.6,0,0,0,.184.012h.221a2.4,2.4,0,0,1,4.4,0,2.4,2.4,0,0,1,4.406,0h.221a2.023,2.023,0,0,0,.378-.038v5.532a.844.844,0,0,1-.741.916h-8.333a.844.844,0,0,1-.741-.916Zm12.367-11.128a.7.7,0,0,1,.6.374l1.949,3.3h-3.156l-.929-3.67Zm-15.711.374a.708.708,0,0,1,.6-.374h1.542l-.931,3.67h-3.155Zm-2.8,7.131.34-2.692h3.512l-.175,2.766h0l-.027.429a1.957,1.957,0,0,1-1.736,1.99h-.194a1.62,1.62,0,0,1-1.323-.757A2.519,2.519,0,0,1,520.133,523.046Zm1.724,14.205V526.68h.19a2.59,2.59,0,0,0,2.208-1.466,3.632,3.632,0,0,0,.253.407,2.779,2.779,0,0,0,.851.759v5.793a1.9,1.9,0,0,0,1.663,2.061h8.333a1.9,1.9,0,0,0,1.663-2.061v-5.8a.94.94,0,0,0-.015-.1,2.835,2.835,0,0,0,.67-.647,3.4,3.4,0,0,0,.255-.407,2.587,2.587,0,0,0,2.208,1.466h.384v10.571Z" transform="translate(-519.188 -514.396)" fill="#8a8a8e"/>
</svg>
