<svg xmlns="http://www.w3.org/2000/svg" width="24" height="25" viewBox="0 0 24 25">
  <g id="Group_55407" data-name="Group 55407" transform="translate(-26 -6)">
    <g id="Polygon_2" data-name="Polygon 2" transform="translate(50 6) rotate(90)" fill="none" stroke-linecap="round">
      <path d="M15.518.394a1,1,0,0,1,1.3.422l1.4,2.527a1,1,0,0,0,.678.5l2.814.564a1,1,0,0,1,.8,1.1l-.341,2.893a1,1,0,0,0,.256.793l1.96,2.138a1,1,0,0,1,0,1.352l-1.96,2.138a1,1,0,0,0-.256.793L22.5,18.5a1,1,0,0,1-.8,1.1l-2.814.564a1,1,0,0,0-.678.5l-1.4,2.527a1,1,0,0,1-1.3.422l-2.6-1.209a1,1,0,0,0-.845,0l-2.6,1.209a1,1,0,0,1-1.3-.422l-1.4-2.527a1,1,0,0,0-.678-.5L3.292,19.6a1,1,0,0,1-.8-1.1l.341-2.893a1,1,0,0,0-.256-.793L.62,12.676a1,1,0,0,1,0-1.352L2.58,9.186a1,1,0,0,0,.256-.793L2.5,5.5a1,1,0,0,1,.8-1.1l2.814-.564a1,1,0,0,0,.678-.5L8.185.816a1,1,0,0,1,1.3-.422l2.6,1.209a1,1,0,0,0,.845,0Z" stroke="none"/>
      <path d="M 15.93994903564453 1.300260543823242 L 13.34476947784424 2.509590148925781 C 13.08201885223389 2.632030487060547 12.78989887237549 2.696750640869141 12.50000858306885 2.696750640869141 C 12.21010875701904 2.696750640869141 11.91798877716064 2.632030487060547 11.65524864196777 2.509590148925781 L 9.06005859375 1.300249099731445 L 7.659538269042969 3.827739715576172 C 7.37432861328125 4.342449188232422 6.879819869995117 4.703920364379883 6.30280876159668 4.819459915161133 L 3.488359451293945 5.382980346679688 L 3.829128265380859 8.276029586791992 C 3.897258758544922 8.8543701171875 3.710628509521484 9.432259559631348 3.317108154296875 9.861510276794434 L 1.35662841796875 12 L 3.317108154296875 14.13848972320557 C 3.710628509521484 14.56774044036865 3.897258758544922 15.1456298828125 3.829128265380859 15.72397041320801 L 3.488359451293945 18.61701965332031 L 6.302818298339844 19.18054008483887 C 6.879819869995117 19.29607963562012 7.374319076538086 19.65755081176758 7.659528732299805 20.17226028442383 L 9.06005859375 22.69973945617676 L 11.65520858764648 21.49041938781738 C 11.91797924041748 21.36796951293945 12.21009922027588 21.3032398223877 12.49999904632568 21.3032398223877 C 12.78988933563232 21.3032398223877 13.08200931549072 21.36796951293945 13.34475898742676 21.49040985107422 L 15.93993949890137 22.69974899291992 L 17.34046936035156 20.17226028442383 C 17.62567901611328 19.65755081176758 18.12017822265625 19.29607963562012 18.69718933105469 19.18054008483887 L 21.51163864135742 18.61701965332031 L 21.17086982727051 15.72397041320801 C 21.10273933410645 15.14562034606934 21.28937911987305 14.56772041320801 21.68289947509766 14.13848972320557 L 23.64336967468262 12 L 21.68291854858398 9.861530303955078 C 21.28937911987305 9.432279586791992 21.10273933410645 8.854390144348145 21.17086982727051 8.276029586791992 L 21.51163864135742 5.382980346679688 L 18.69720840454102 4.819459915161133 C 18.12020874023438 4.703950881958008 17.62569808959961 4.342479705810547 17.34046936035156 3.827749252319336 L 15.93994903564453 1.300260543823242 M 9.06065845489502 0.3000831604003906 C 9.202399253845215 0.3000717163085938 9.346098899841309 0.3302993774414062 9.482448577880859 0.3938407897949219 L 12.07762908935547 1.603170394897461 C 12.21150875091553 1.665559768676758 12.35575866699219 1.696754455566406 12.50001049041748 1.696754455566406 C 12.64426136016846 1.696754455566406 12.78851413726807 1.665559768676758 12.92239952087402 1.603170394897461 L 15.51755905151367 0.3938407897949219 C 15.65388011932373 0.3303165435791016 15.79763603210449 0.3000869750976562 15.93934726715088 0.3000869750976562 C 16.29247856140137 0.3000869750976562 16.63298606872559 0.4877605438232422 16.81464004516602 0.8155708312988281 L 18.21515846252441 3.343069076538086 C 18.35749816894531 3.599939346313477 18.60555839538574 3.781269073486328 18.89351844787598 3.838920593261719 L 21.70796966552734 4.402439117431641 C 22.21897888183594 4.5047607421875 22.56573867797852 4.982379913330078 22.50476837158203 5.499959945678711 L 22.16399955749512 8.393010139465332 C 22.12996864318848 8.681920051574707 22.22342872619629 8.971320152282715 22.42001914978027 9.185750007629395 L 24.38048934936523 11.32423973083496 C 24.73099899291992 11.70656967163086 24.73099899291992 12.29343032836914 24.38048934936523 12.67576026916504 L 22.42001914978027 14.81424999237061 C 22.22342872619629 15.02867984771729 22.12996864318848 15.31809043884277 22.16399955749512 15.60698986053467 L 22.50476837158203 18.50004005432129 C 22.56573867797852 19.01762008666992 22.21897888183594 19.4952392578125 21.70796966552734 19.59756088256836 L 18.89351844787598 20.16107940673828 C 18.60555839538574 20.21874046325684 18.35749816894531 20.40006065368652 18.21515846252441 20.65694046020508 L 16.81462860107422 23.18442916870117 C 16.63299942016602 23.5122127532959 16.29244804382324 23.69991683959961 15.93934917449951 23.69991683959961 C 15.79760837554932 23.69991683959961 15.65390968322754 23.66970062255859 15.51755905151367 23.60615921020508 L 12.92237949371338 22.39682960510254 C 12.788498878479 22.33444023132324 12.64424896240234 22.30324554443359 12.49999809265137 22.30324554443359 C 12.35574626922607 22.30324554443359 12.21149444580078 22.33444023132324 12.07760906219482 22.39682960510254 L 9.482439041137695 23.60615921020508 C 9.346117973327637 23.66968727111816 9.202360153198242 23.69991683959961 9.060648918151855 23.69991683959961 C 8.707517623901367 23.69991683959961 8.367013931274414 23.51223945617676 8.185369491577148 23.18442916870117 L 6.784839630126953 20.65694046020508 C 6.642499923706055 20.40006065368652 6.394439697265625 20.21874046325684 6.106479644775391 20.16107940673828 L 3.292028427124023 19.59756088256836 C 2.78101921081543 19.4952392578125 2.434259414672852 19.01762008666992 2.495229721069336 18.50004005432129 L 2.83599853515625 15.60698986053467 C 2.870029449462891 15.31809043884277 2.776569366455078 15.02867984771729 2.579988479614258 14.81424999237061 L 0.6195087432861328 12.67576026916504 C 0.2689990997314453 12.29343032836914 0.2689990997314453 11.70656967163086 0.6195087432861328 11.32423973083496 L 2.579988479614258 9.185750007629395 C 2.776569366455078 8.971320152282715 2.870029449462891 8.681909561157227 2.83599853515625 8.393010139465332 L 2.495229721069336 5.499959945678711 C 2.434268951416016 4.982379913330078 2.78101921081543 4.504749298095703 3.29203987121582 4.402439117431641 L 6.106479644775391 3.838920593261719 C 6.394449234008789 3.781259536743164 6.642509460449219 3.599939346313477 6.784849166870117 3.343059539794922 L 8.185369491577148 0.8155708312988281 C 8.367006301879883 0.4877872467041016 8.707559585571289 0.30010986328125 9.06065845489502 0.3000831604003906 Z" stroke="none" fill="#8a8a8e"/>
    </g>
    <g id="Group_54479" data-name="Group 54479" transform="translate(33 13)">
      <g id="Group_54470" data-name="Group 54470">
        <path id="Path_17741" data-name="Path 17741" d="M153.6,143.984a.658.658,0,0,0-.93,0l-8.684,8.684a.658.658,0,1,0,.93.93l8.684-8.684A.658.658,0,0,0,153.6,143.984Z" transform="translate(-143.791 -143.792)" fill="#8a8a8e"/>
      </g>
    </g>
    <g id="Group_54480" data-name="Group 54480" transform="translate(32.47 11.771)">
      <g id="Group_54472" data-name="Group 54472">
        <path id="Path_17742" data-name="Path 17742" d="M145.447,123.116a2.54,2.54,0,1,0,2.645,2.538A2.6,2.6,0,0,0,145.447,123.116Zm0,3.691a1.154,1.154,0,1,1,1.2-1.154A1.18,1.18,0,0,1,145.447,126.807Z" transform="translate(-142.802 -123.116)" fill="#8a8a8e"/>
      </g>
    </g>
    <g id="Group_54481" data-name="Group 54481" transform="translate(38.24 19.153)">
      <g id="Group_54474" data-name="Group 54474">
        <path id="Path_17743" data-name="Path 17743" d="M263.567,280.61a2.54,2.54,0,1,0,2.645,2.538A2.6,2.6,0,0,0,263.567,280.61Zm0,3.691a1.154,1.154,0,1,1,1.2-1.153A1.18,1.18,0,0,1,263.567,284.3Z" transform="translate(-260.922 -280.61)" fill="#8a8a8e"/>
      </g>
    </g>
  </g>
</svg>
