<svg xmlns="http://www.w3.org/2000/svg" width="24" height="24" viewBox="0 0 24 24">
  <g id="Group_54486" data-name="Group 54486" transform="translate(10445 -13711)">
    <g id="Ellipse_2772" data-name="Ellipse 2772" transform="translate(-10445 13711)" fill="none" stroke="#8a8a8e" stroke-width="1">
      <circle cx="12" cy="12" r="12" stroke="none"/>
      <circle cx="12" cy="12" r="11.5" fill="none"/>
    </g>
    <g id="Ellipse_2774" data-name="Ellipse 2774" transform="translate(-10437 13715)" fill="none" stroke="#8a8a8e" stroke-width="1">
      <circle cx="4" cy="4" r="4" stroke="none"/>
      <circle cx="4" cy="4" r="3.5" fill="none"/>
    </g>
    <g id="Intersection_1" data-name="Intersection 1" transform="translate(-20890 27417.125)" fill="none">
      <path d="M10447.253-13687.125a11.988,11.988,0,0,1,9.748-5,11.986,11.986,0,0,1,9.746,5,11.986,11.986,0,0,1-9.746,5A11.988,11.988,0,0,1,10447.253-13687.125Z" stroke="none"/>
      <path d="M 10457.0009765625 -13691.125 C 10455.2265625 -13691.125 10453.4638671875 -13690.6923828125 10451.90234375 -13689.875 C 10450.6083984375 -13689.1962890625 10449.44921875 -13688.25390625 10448.515625 -13687.125 C 10449.44921875 -13685.99609375 10450.6083984375 -13685.0537109375 10451.90234375 -13684.375 C 10453.4638671875 -13683.5576171875 10455.2265625 -13683.125 10457.0009765625 -13683.125 C 10458.775390625 -13683.125 10460.537109375 -13683.5576171875 10462.09765625 -13684.375 C 10463.3916015625 -13685.0537109375 10464.55078125 -13685.99609375 10465.484375 -13687.125 C 10464.55078125 -13688.25390625 10463.3916015625 -13689.1962890625 10462.09765625 -13689.875 C 10460.537109375 -13690.6923828125 10458.775390625 -13691.125 10457.0009765625 -13691.125 M 10457.0009765625 -13692.125 C 10461.0146484375 -13692.125 10464.568359375 -13690.15234375 10466.7470703125 -13687.125 C 10464.568359375 -13684.09765625 10461.0146484375 -13682.125 10457.0009765625 -13682.125 C 10452.986328125 -13682.125 10449.431640625 -13684.09765625 10447.2529296875 -13687.125 C 10449.431640625 -13690.15234375 10452.986328125 -13692.125 10457.0009765625 -13692.125 Z" stroke="none" fill="#8a8a8e"/>
    </g>
  </g>
</svg>
