<svg id="return" xmlns="http://www.w3.org/2000/svg" width="24" height="24" viewBox="0 0 24 24">
  <path id="Path_31" data-name="Path 31" d="M23.758,5.691,14.411.558a.469.469,0,0,0-.451,0L10.437,2.493a.47.47,0,0,0-.2.111L4.613,5.691A.468.468,0,0,0,4.37,6.1V12.31A6.245,6.245,0,0,0,.634,21a.469.469,0,0,0,.842-.412,5.3,5.3,0,1,1,2.436,2.436.469.469,0,0,0-.411.842A6.249,6.249,0,0,0,11.94,20.8l2.02,1.109a.469.469,0,0,0,.451,0l9.347-5.132A.469.469,0,0,0,24,16.367V13.109a.469.469,0,1,0-.938,0v2.98l-8.408,4.617v-9.2l2.775-1.524V12.4a.469.469,0,0,0,.695.411l2-1.1a.468.468,0,0,0,.243-.411V8.373l2.693-1.479V9.36a.469.469,0,0,0,.938,0V6.1a.469.469,0,0,0-.243-.411ZM14.185,1.5l8.373,4.6-2.641,1.45-8.373-4.6Zm0,9.2L5.812,6.1,8.55,4.6l8.373,4.6ZM17.9,8.661l-8.373-4.6,1.046-.574,8.373,4.6ZM10.65,13.852a6.2,6.2,0,0,0-4.41-1.827,6.323,6.323,0,0,0-.932.069v-5.2l8.411,4.619v9.2l-1.46-.8a6.267,6.267,0,0,0,.218-1.644,6.2,6.2,0,0,0-1.827-4.41Zm8.784-2.829-1.065.586V9.473l1.065-.585Zm0,0" transform="translate(-0.001 -0.501)" fill="orange"/>
  <path id="Path_32" data-name="Path 32" d="M492.477,219.441a.477.477,0,1,0,.337.14A.481.481,0,0,0,492.477,219.441Zm0,0" transform="translate(-468.955 -209.186)" fill="orange"/>
  <path id="Path_33" data-name="Path 33" d="M67.082,324.666a.477.477,0,0,0,.337-.815l-.331-.331H69.91a1.241,1.241,0,0,1,0,2.482H68.239a.477.477,0,1,0,0,.954H69.91a2.2,2.2,0,1,0,0-4.39H67.089l.331-.331a.477.477,0,1,0-.675-.675L65.6,322.706a.478.478,0,0,0,0,.675l1.145,1.145a.476.476,0,0,0,.337.14Zm0,0" transform="translate(-62.336 -306.54)" fill="orange"/>
  <path id="Path_34" data-name="Path 34" d="M36.546,457.387a.475.475,0,0,1-.365-.17h0a.476.476,0,1,1,.366.171Zm0,0" transform="translate(-34.347 -435.108)" fill="orange"/>
</svg>
