<svg id="truck" xmlns="http://www.w3.org/2000/svg" width="30" height="20" viewBox="0 0 30 20">
  <g id="Group_122" data-name="Group 122">
    <g id="Group_121" data-name="Group 121">
      <path id="Path_25" data-name="Path 25" d="M27.9,102.541l-.777-3.275a.49.49,0,0,0,.372-.484v-.528a2.03,2.03,0,0,0-1.973-2.079H21.983V95.085a1,1,0,0,0-.971-1.023H2.975A1,1,0,0,0,2,95.085v8.977a.483.483,0,0,0,.47.5.483.483,0,0,0,.47-.5V95.085a.032.032,0,0,1,.031-.033H21.013a.032.032,0,0,1,.031.033v8.977a.47.47,0,1,0,.939,0V103.5h5.544a1.548,1.548,0,0,1,1.46,1.122H27.526a.483.483,0,0,0-.47.5v1.056a1.515,1.515,0,0,0,1.472,1.551h.532V109.9H27.832a2.927,2.927,0,0,0-5.623,0h-.226v-3.729a.47.47,0,1,0-.939,0V109.9H11.3a3,3,0,0,0-2.811-2.112A3,3,0,0,0,5.675,109.9h-2.7a.032.032,0,0,1-.031-.033v-1.089H4.979a.5.5,0,0,0,0-.99H.47a.5.5,0,0,0,0,.99H2v1.089a1,1,0,0,0,.971,1.023H5.512c0,.011,0,.022,0,.033a3.062,3.062,0,0,0,2.975,3.135,3.062,3.062,0,0,0,2.975-3.135c0-.011,0-.022,0-.033H22.047c0,.011,0,.022,0,.033a2.979,2.979,0,1,0,5.95,0c0-.011,0-.022,0-.033H29.53a.483.483,0,0,0,.47-.5v-5.281A2.572,2.572,0,0,0,27.9,102.541Zm-5.917-5.376h3.539a1.064,1.064,0,0,1,1.033,1.089v.033H21.983Zm0,5.347V99.277h4.174l.767,3.234Zm-13.5,10.561a2.148,2.148,0,0,1,0-4.29,2.148,2.148,0,0,1,0,4.29Zm16.534,0a2.148,2.148,0,1,1,2.035-2.145A2.095,2.095,0,0,1,25.021,113.072Zm4.04-6.337h-.532a.548.548,0,0,1-.532-.561v-.561h1.065v1.122Z" transform="translate(0 -94.062)" fill="orange"/>
    </g>
  </g>
  <g id="Group_124" data-name="Group 124" transform="translate(7.521 16.096)">
    <g id="Group_123" data-name="Group 123" transform="translate(0 0)">
      <path id="Path_26" data-name="Path 26" d="M129.227,350.6a.96.96,0,1,0,.96.96A.962.962,0,0,0,129.227,350.6Z" transform="translate(-128.267 -350.597)" fill="orange"/>
    </g>
  </g>
  <g id="Group_126" data-name="Group 126" transform="translate(24.113 16.096)">
    <g id="Group_125" data-name="Group 125" transform="translate(0 0)">
      <path id="Path_27" data-name="Path 27" d="M411.415,350.6a.96.96,0,1,0,.96.96A.962.962,0,0,0,411.415,350.6Z" transform="translate(-410.455 -350.597)" fill="orange"/>
    </g>
  </g>
  <g id="Group_128" data-name="Group 128" transform="translate(12.071 13.773)">
    <g id="Group_127" data-name="Group 127">
      <path id="Path_28" data-name="Path 28" d="M212.632,316.393h-6.94a.465.465,0,0,0,0,.93h6.94a.465.465,0,0,0,0-.93Z" transform="translate(-205.227 -316.393)" fill="orange"/>
    </g>
  </g>
  <g id="Group_130" data-name="Group 130" transform="translate(0.991 11.654)">
    <g id="Group_129" data-name="Group 129">
      <path id="Path_29" data-name="Path 29" d="M23.515,282.188H17.567a.465.465,0,0,0,0,.93h5.949a.465.465,0,0,0,0-.93Z" transform="translate(-17.102 -282.188)" fill="orange"/>
    </g>
  </g>
  <g id="Group_132" data-name="Group 132" transform="translate(8.55 4.87)">
    <g id="Group_131" data-name="Group 131" transform="translate(0 0)">
      <path id="Path_30" data-name="Path 30" d="M153.1,171.159a.465.465,0,0,0-.657,0l-4.133,4.133-2.15-2.15a.465.465,0,0,0-.657.657l2.479,2.479a.465.465,0,0,0,.657,0l4.461-4.461A.465.465,0,0,0,153.1,171.159Z" transform="translate(-145.37 -171.023)" fill="orange"/>
    </g>
  </g>
</svg>
