<svg id="warranty" xmlns="http://www.w3.org/2000/svg" width="24" height="24" viewBox="0 0 24 24">
  <path id="Path_470" data-name="Path 470" d="M41.055,39.321a.328.328,0,0,0-.232.1L35.11,45.131l-3.288-3.288a.337.337,0,0,0-.464,0l-1.326,1.326a.328.328,0,0,0,0,.464l4.846,4.846a.328.328,0,0,0,.464,0l7.27-7.271a.328.328,0,0,0,0-.464l-1.326-1.326A.328.328,0,0,0,41.055,39.321ZM35.11,47.782,30.729,43.4l.862-.862,3.288,3.289a.328.328,0,0,0,.464,0l5.713-5.713.862.862Z" transform="translate(-24.323 -31.947)" fill="orange"/>
  <path id="Path_471" data-name="Path 471" d="M25.268,16.332A8.936,8.936,0,1,0,34.2,25.268,8.936,8.936,0,0,0,25.268,16.332Zm0,17.216a8.28,8.28,0,1,1,8.28-8.28A8.28,8.28,0,0,1,25.268,33.548Z" transform="translate(-13.269 -13.268)" fill="orange"/>
  <path id="Path_472" data-name="Path 472" d="M23.615,13.038a1.673,1.673,0,0,0,0-2.1l-.538-.671a1.028,1.028,0,0,1-.184-.93l.24-.823a1.694,1.694,0,0,0-.807-1.948l-.751-.412a1.028,1.028,0,0,1-.528-.787l-.094-.854A1.673,1.673,0,0,0,19.464,3.02l-.854-.094a1.027,1.027,0,0,1-.787-.528l-.412-.751A1.673,1.673,0,0,0,15.463.84l-.823.24A1.029,1.029,0,0,1,13.71.9L13.039.358a1.674,1.674,0,0,0-2.1,0L10.264.9a1.031,1.031,0,0,1-.93.184L8.511.84a1.693,1.693,0,0,0-1.948.807L6.151,2.4a1.028,1.028,0,0,1-.787.528L4.51,3.02A1.673,1.673,0,0,0,3.021,4.508l-.094.854A1.027,1.027,0,0,1,2.4,6.15l-.751.412A1.673,1.673,0,0,0,.841,8.51l.24.823a1.029,1.029,0,0,1-.184.93l-.538.671a1.673,1.673,0,0,0,0,2.1l.538.671a1.028,1.028,0,0,1,.184.93l-.24.823a1.694,1.694,0,0,0,.807,1.948l.751.412a1.028,1.028,0,0,1,.528.787l.094.854a1.673,1.673,0,0,0,1.489,1.489l.854.094a1.027,1.027,0,0,1,.787.528l.412.751a1.673,1.673,0,0,0,1.948.807l.823-.24a1.031,1.031,0,0,1,.93.184l.671.538a1.673,1.673,0,0,0,2.1,0l.671-.538a1.028,1.028,0,0,1,.93-.184l.823.24a1.673,1.673,0,0,0,1.948-.807l.412-.751a1.028,1.028,0,0,1,.787-.528l.854-.094a1.673,1.673,0,0,0,1.489-1.489l.094-.854a1.027,1.027,0,0,1,.528-.787l.751-.412a1.673,1.673,0,0,0,.807-1.948l-.24-.823a1.029,1.029,0,0,1,.184-.93Zm-1.05.261a1.686,1.686,0,0,0-.3,1.524l.24.823a1.021,1.021,0,0,1-.493,1.188l-.752.412a1.683,1.683,0,0,0-.864,1.292l-.094.854a1.022,1.022,0,0,1-.908.908l-.854.094a1.684,1.684,0,0,0-1.292.864l-.412.751a1.022,1.022,0,0,1-1.188.493l-.823-.24a1.684,1.684,0,0,0-1.523.3l-.671.538a1.021,1.021,0,0,1-1.284,0l-.671-.538a1.685,1.685,0,0,0-1.524-.3l-.823.24a1.022,1.022,0,0,1-1.188-.493l-.412-.752a1.683,1.683,0,0,0-1.292-.864L4.581,20.3a1.022,1.022,0,0,1-.908-.908l-.094-.854a1.684,1.684,0,0,0-.864-1.292l-.751-.412a1.033,1.033,0,0,1-.492-1.188l.24-.823a1.685,1.685,0,0,0-.3-1.523L.87,12.628a1.021,1.021,0,0,1,0-1.284l.538-.671a1.686,1.686,0,0,0,.3-1.524l-.24-.823a1.021,1.021,0,0,1,.493-1.188l.752-.412a1.683,1.683,0,0,0,.864-1.292l.094-.854a1.022,1.022,0,0,1,.91-.908l.854-.094a1.684,1.684,0,0,0,1.292-.864l.412-.751a1.034,1.034,0,0,1,1.187-.493l.823.24a1.684,1.684,0,0,0,1.523-.3L11.345.87a1.021,1.021,0,0,1,1.284,0l.671.538a1.687,1.687,0,0,0,1.524.3l.823-.24a1.022,1.022,0,0,1,1.188.493l.412.752a1.683,1.683,0,0,0,1.292.864l.854.094a1.022,1.022,0,0,1,.908.908l.094.854a1.684,1.684,0,0,0,.864,1.292l.751.412A1.033,1.033,0,0,1,22.5,8.326l-.24.823a1.685,1.685,0,0,0,.3,1.523l.538.671a1.021,1.021,0,0,1,0,1.284Z" transform="translate(0.013 0.014)" fill="orange"/>
</svg>
